<mxfile host="app.diagrams.net" modified="2020-08-05T09:03:38.400Z" agent="5.0 (Windows NT 10.0; WOW64) AppleWebKit/537.36 (KHTML, like Gecko) Chrome/84.0.4147.86 YaBrowser/20.8.0.664 (beta) Yowser/2.5 Safari/537.36" etag="FjUcwc5u31qTJwOskJUY" version="13.5.9" type="github">
  <diagram id="1bCNgV_drRjvz0shBA7y" name="包活干-架构图">
    <mxGraphModel dx="1102" dy="563" grid="1" gridSize="10" guides="1" tooltips="1" connect="1" arrows="1" fold="1" page="1" pageScale="1" pageWidth="827" pageHeight="1169" background="none" math="0" shadow="1">
      <root>
        <mxCell id="0" />
        <mxCell id="1" parent="0" />
        <mxCell id="ny-wrZLaJV0iAhvgu-0p-9" value="OpenAPI" style="rounded=0;whiteSpace=wrap;html=1;sketch=0;fontSize=14;gradientColor=#ffd966;fillColor=#fff2cc;strokeColor=#d6b656;verticalAlign=top;fontStyle=1" vertex="1" parent="1">
          <mxGeometry x="660" y="10" width="160" height="180" as="geometry" />
        </mxCell>
        <mxCell id="Akp1j36LhRfIPDxdq11B-76" value="Gateway" style="rounded=0;whiteSpace=wrap;html=1;sketch=0;fontSize=14;align=center;strokeColor=#d79b00;verticalAlign=top;fontStyle=1;fillColor=#ffcd28;gradientColor=#ffa500;perimeterSpacing=0;glass=0;shadow=0;" parent="1" vertex="1">
          <mxGeometry x="10" y="120" width="610" height="70" as="geometry" />
        </mxCell>
        <mxCell id="Akp1j36LhRfIPDxdq11B-5" value="Service" style="text;html=1;strokeColor=#6c8ebf;align=center;verticalAlign=top;whiteSpace=wrap;rounded=0;sketch=0;fontSize=14;fontStyle=1;gradientColor=#7ea6e0;fillColor=#dae8fc;perimeterSpacing=0;glass=0;shadow=0;" parent="1" vertex="1">
          <mxGeometry x="10" y="230" width="610" height="350" as="geometry" />
        </mxCell>
        <mxCell id="Akp1j36LhRfIPDxdq11B-6" value="DAO" style="text;html=1;strokeColor=#996185;align=center;verticalAlign=top;whiteSpace=wrap;rounded=0;sketch=0;fontSize=14;fontStyle=1;gradientColor=#d5739d;fillColor=#e6d0de;perimeterSpacing=0;glass=0;shadow=0;" parent="1" vertex="1">
          <mxGeometry x="10" y="620" width="810" height="70" as="geometry" />
        </mxCell>
        <mxCell id="Akp1j36LhRfIPDxdq11B-8" value="Database" style="text;html=1;strokeColor=#b85450;align=center;verticalAlign=top;whiteSpace=wrap;rounded=0;sketch=0;fontSize=14;fontStyle=1;gradientColor=#ea6b66;fillColor=#f8cecc;perimeterSpacing=0;glass=0;shadow=0;" parent="1" vertex="1">
          <mxGeometry x="10" y="730" width="810" height="350" as="geometry" />
        </mxCell>
        <mxCell id="Akp1j36LhRfIPDxdq11B-9" value="订单模块" style="rounded=0;whiteSpace=wrap;html=1;sketch=0;fontSize=14;align=center;strokeColor=#6c8ebf;labelPosition=center;verticalLabelPosition=middle;verticalAlign=top;fillColor=#dae8fc;fontStyle=0;perimeterSpacing=0;glass=0;shadow=0;" parent="1" vertex="1">
          <mxGeometry x="20" y="260" width="110" height="310" as="geometry" />
        </mxCell>
        <mxCell id="Akp1j36LhRfIPDxdq11B-10" value="用户模块" style="rounded=0;whiteSpace=wrap;html=1;sketch=0;fontSize=14;align=center;strokeColor=#6c8ebf;labelPosition=center;verticalLabelPosition=middle;verticalAlign=top;fillColor=#dae8fc;fontStyle=0;perimeterSpacing=0;glass=0;shadow=0;" parent="1" vertex="1">
          <mxGeometry x="140" y="260" width="110" height="310" as="geometry" />
        </mxCell>
        <mxCell id="Akp1j36LhRfIPDxdq11B-11" value="管理员模块" style="rounded=0;whiteSpace=wrap;html=1;sketch=0;fontSize=14;align=center;strokeColor=#6c8ebf;labelPosition=center;verticalLabelPosition=middle;verticalAlign=top;fillColor=#dae8fc;fontStyle=0;perimeterSpacing=0;glass=0;shadow=0;" parent="1" vertex="1">
          <mxGeometry x="260" y="260" width="110" height="310" as="geometry" />
        </mxCell>
        <mxCell id="Akp1j36LhRfIPDxdq11B-12" value="公共模块" style="rounded=0;whiteSpace=wrap;html=1;sketch=0;fontSize=14;align=center;strokeColor=#6c8ebf;labelPosition=center;verticalLabelPosition=middle;verticalAlign=top;fillColor=#dae8fc;fontStyle=0;perimeterSpacing=0;glass=0;shadow=0;" parent="1" vertex="1">
          <mxGeometry x="380" y="260" width="110" height="310" as="geometry" />
        </mxCell>
        <mxCell id="Akp1j36LhRfIPDxdq11B-13" value="OpenAPI" style="rounded=0;whiteSpace=wrap;html=1;sketch=0;fontSize=14;align=center;labelPosition=center;verticalLabelPosition=middle;verticalAlign=top;fontStyle=0;fillColor=#dae8fc;strokeColor=#6c8ebf;perimeterSpacing=0;glass=0;shadow=0;" parent="1" vertex="1">
          <mxGeometry x="500" y="260" width="110" height="310" as="geometry" />
        </mxCell>
        <mxCell id="Akp1j36LhRfIPDxdq11B-14" value="订单" style="rounded=0;whiteSpace=wrap;html=1;sketch=0;fontSize=14;align=center;strokeColor=#6c8ebf;fillColor=#dae8fc;perimeterSpacing=0;glass=0;shadow=0;" parent="1" vertex="1">
          <mxGeometry x="30" y="290" width="90" height="30" as="geometry" />
        </mxCell>
        <mxCell id="Akp1j36LhRfIPDxdq11B-15" value="保单" style="rounded=0;whiteSpace=wrap;html=1;sketch=0;fontSize=14;align=center;strokeColor=#6c8ebf;fillColor=#dae8fc;perimeterSpacing=0;glass=0;shadow=0;" parent="1" vertex="1">
          <mxGeometry x="30" y="330" width="90" height="30" as="geometry" />
        </mxCell>
        <mxCell id="Akp1j36LhRfIPDxdq11B-16" value="服务项目" style="rounded=0;whiteSpace=wrap;html=1;sketch=0;fontSize=14;align=center;strokeColor=#6c8ebf;fillColor=#dae8fc;perimeterSpacing=0;glass=0;shadow=0;" parent="1" vertex="1">
          <mxGeometry x="30" y="370" width="90" height="30" as="geometry" />
        </mxCell>
        <mxCell id="Akp1j36LhRfIPDxdq11B-17" value="资源匹配" style="rounded=0;whiteSpace=wrap;html=1;sketch=0;fontSize=14;align=center;strokeColor=#6c8ebf;fillColor=#dae8fc;perimeterSpacing=0;glass=0;shadow=0;" parent="1" vertex="1">
          <mxGeometry x="30" y="410" width="90" height="30" as="geometry" />
        </mxCell>
        <mxCell id="Akp1j36LhRfIPDxdq11B-18" value="库存" style="rounded=0;whiteSpace=wrap;html=1;sketch=0;fontSize=14;align=center;strokeColor=#6c8ebf;fillColor=#dae8fc;perimeterSpacing=0;glass=0;shadow=0;" parent="1" vertex="1">
          <mxGeometry x="30" y="450" width="90" height="30" as="geometry" />
        </mxCell>
        <mxCell id="Akp1j36LhRfIPDxdq11B-19" value="用户&lt;span style=&quot;color: rgba(0 , 0 , 0 , 0) ; font-family: monospace ; font-size: 0px&quot;&gt;%3CmxGraphModel%3E%3Croot%3E%3CmxCell%20id%3D%220%22%2F%3E%3CmxCell%20id%3D%221%22%20parent%3D%220%22%2F%3E%3CmxCell%20id%3D%222%22%20value%3D%22%E8%AE%A2%E5%8D%95%E7%AE%A1%E7%90%86%22%20style%3D%22rounded%3D0%3BwhiteSpace%3Dwrap%3Bhtml%3D1%3Bsketch%3D0%3BfontSize%3D14%3Balign%3Dcenter%3BstrokeColor%3D%236c8ebf%3BfillColor%3Dnone%3B%22%20vertex%3D%221%22%20parent%3D%221%22%3E%3CmxGeometry%20x%3D%2220%22%20y%3D%22120%22%20width%3D%22120%22%20height%3D%2230%22%20as%3D%22geometry%22%2F%3E%3C%2FmxCell%3E%3C%2Froot%3E%3C%2FmxGraphModel%3E&lt;/span&gt;" style="rounded=0;whiteSpace=wrap;html=1;sketch=0;fontSize=14;align=center;strokeColor=#6c8ebf;fillColor=#dae8fc;perimeterSpacing=0;glass=0;shadow=0;" parent="1" vertex="1">
          <mxGeometry x="150" y="330" width="90" height="30" as="geometry" />
        </mxCell>
        <mxCell id="Akp1j36LhRfIPDxdq11B-20" value="商户" style="rounded=0;whiteSpace=wrap;html=1;sketch=0;fontSize=14;align=center;strokeColor=#6c8ebf;fillColor=#dae8fc;perimeterSpacing=0;glass=0;shadow=0;" parent="1" vertex="1">
          <mxGeometry x="150" y="370" width="90" height="30" as="geometry" />
        </mxCell>
        <mxCell id="Akp1j36LhRfIPDxdq11B-21" value="服务商" style="rounded=0;whiteSpace=wrap;html=1;sketch=0;fontSize=14;align=center;strokeColor=#6c8ebf;fillColor=#dae8fc;perimeterSpacing=0;glass=0;shadow=0;" parent="1" vertex="1">
          <mxGeometry x="150" y="410" width="90" height="30" as="geometry" />
        </mxCell>
        <mxCell id="Akp1j36LhRfIPDxdq11B-22" value="技工" style="rounded=0;whiteSpace=wrap;html=1;sketch=0;fontSize=14;align=center;strokeColor=#6c8ebf;fillColor=#dae8fc;perimeterSpacing=0;glass=0;shadow=0;" parent="1" vertex="1">
          <mxGeometry x="150" y="450" width="90" height="30" as="geometry" />
        </mxCell>
        <mxCell id="Akp1j36LhRfIPDxdq11B-23" value="组织" style="rounded=0;whiteSpace=wrap;html=1;sketch=0;fontSize=14;align=center;strokeColor=#6c8ebf;fillColor=#dae8fc;perimeterSpacing=0;glass=0;shadow=0;" parent="1" vertex="1">
          <mxGeometry x="150" y="290" width="90" height="30" as="geometry" />
        </mxCell>
        <mxCell id="Akp1j36LhRfIPDxdq11B-24" value="字典" style="rounded=0;whiteSpace=wrap;html=1;sketch=0;fontSize=14;align=center;strokeColor=#6c8ebf;fillColor=#dae8fc;perimeterSpacing=0;glass=0;shadow=0;" parent="1" vertex="1">
          <mxGeometry x="270" y="290" width="90" height="30" as="geometry" />
        </mxCell>
        <mxCell id="Akp1j36LhRfIPDxdq11B-25" value="角色" style="rounded=0;whiteSpace=wrap;html=1;sketch=0;fontSize=14;align=center;strokeColor=#6c8ebf;fillColor=#dae8fc;perimeterSpacing=0;glass=0;shadow=0;" parent="1" vertex="1">
          <mxGeometry x="270" y="330" width="90" height="30" as="geometry" />
        </mxCell>
        <mxCell id="Akp1j36LhRfIPDxdq11B-26" value="权限（菜单）" style="rounded=0;whiteSpace=wrap;html=1;sketch=0;fontSize=14;align=center;strokeColor=#6c8ebf;fillColor=#dae8fc;perimeterSpacing=0;glass=0;shadow=0;" parent="1" vertex="1">
          <mxGeometry x="270" y="370" width="90" height="30" as="geometry" />
        </mxCell>
        <mxCell id="Akp1j36LhRfIPDxdq11B-27" value="组织" style="rounded=0;whiteSpace=wrap;html=1;sketch=0;fontSize=14;align=center;strokeColor=#6c8ebf;fillColor=#dae8fc;perimeterSpacing=0;glass=0;shadow=0;" parent="1" vertex="1">
          <mxGeometry x="270" y="410" width="90" height="30" as="geometry" />
        </mxCell>
        <mxCell id="Akp1j36LhRfIPDxdq11B-28" value="设备" style="rounded=0;whiteSpace=wrap;html=1;sketch=0;fontSize=14;align=center;strokeColor=#6c8ebf;fillColor=#dae8fc;perimeterSpacing=0;glass=0;shadow=0;" parent="1" vertex="1">
          <mxGeometry x="30" y="490" width="90" height="30" as="geometry" />
        </mxCell>
        <mxCell id="Akp1j36LhRfIPDxdq11B-30" value="订单" style="rounded=0;whiteSpace=wrap;html=1;sketch=0;fontSize=14;align=center;strokeColor=#b85450;fillColor=#f8cecc;verticalAlign=top;perimeterSpacing=0;glass=0;shadow=0;" parent="1" vertex="1">
          <mxGeometry x="20" y="760" width="150" height="310" as="geometry" />
        </mxCell>
        <mxCell id="Akp1j36LhRfIPDxdq11B-31" value="用户" style="rounded=0;whiteSpace=wrap;html=1;sketch=0;fontSize=14;align=center;strokeColor=#b85450;fillColor=#f8cecc;verticalAlign=top;perimeterSpacing=0;glass=0;shadow=0;" parent="1" vertex="1">
          <mxGeometry x="180" y="760" width="150" height="310" as="geometry" />
        </mxCell>
        <mxCell id="Akp1j36LhRfIPDxdq11B-32" value="管理员" style="rounded=0;whiteSpace=wrap;html=1;sketch=0;fontSize=14;align=center;strokeColor=#b85450;fillColor=#f8cecc;verticalAlign=top;perimeterSpacing=0;glass=0;shadow=0;" parent="1" vertex="1">
          <mxGeometry x="340" y="760" width="150" height="310" as="geometry" />
        </mxCell>
        <mxCell id="Akp1j36LhRfIPDxdq11B-33" value="Redis" style="rounded=0;whiteSpace=wrap;html=1;sketch=0;fontSize=14;align=center;strokeColor=#b85450;fillColor=#f8cecc;verticalAlign=top;perimeterSpacing=0;glass=0;shadow=0;" parent="1" vertex="1">
          <mxGeometry x="500" y="760" width="150" height="310" as="geometry" />
        </mxCell>
        <mxCell id="Akp1j36LhRfIPDxdq11B-34" value="MQ" style="rounded=0;whiteSpace=wrap;html=1;sketch=0;fontSize=14;align=center;strokeColor=#b85450;fillColor=#f8cecc;verticalAlign=top;perimeterSpacing=0;glass=0;shadow=0;" parent="1" vertex="1">
          <mxGeometry x="660" y="760" width="150" height="310" as="geometry" />
        </mxCell>
        <mxCell id="Akp1j36LhRfIPDxdq11B-35" value="订单表" style="rounded=0;whiteSpace=wrap;html=1;sketch=0;fontSize=14;align=center;strokeColor=#b85450;fillColor=#f8cecc;perimeterSpacing=0;glass=0;shadow=0;" parent="1" vertex="1">
          <mxGeometry x="30" y="790" width="130" height="30" as="geometry" />
        </mxCell>
        <mxCell id="Akp1j36LhRfIPDxdq11B-36" value="库存表" style="rounded=0;whiteSpace=wrap;html=1;sketch=0;fontSize=14;align=center;strokeColor=#b85450;fillColor=#f8cecc;perimeterSpacing=0;glass=0;shadow=0;" parent="1" vertex="1">
          <mxGeometry x="30" y="830" width="130" height="30" as="geometry" />
        </mxCell>
        <mxCell id="Akp1j36LhRfIPDxdq11B-37" value="保单表" style="rounded=0;whiteSpace=wrap;html=1;sketch=0;fontSize=14;align=center;strokeColor=#b85450;fillColor=#f8cecc;perimeterSpacing=0;glass=0;shadow=0;" parent="1" vertex="1">
          <mxGeometry x="30" y="870" width="130" height="30" as="geometry" />
        </mxCell>
        <mxCell id="Akp1j36LhRfIPDxdq11B-38" value="服务项目表" style="rounded=0;whiteSpace=wrap;html=1;sketch=0;fontSize=14;align=center;strokeColor=#b85450;fillColor=#f8cecc;perimeterSpacing=0;glass=0;shadow=0;" parent="1" vertex="1">
          <mxGeometry x="30" y="910" width="130" height="30" as="geometry" />
        </mxCell>
        <mxCell id="Akp1j36LhRfIPDxdq11B-39" value="资源匹配表" style="rounded=0;whiteSpace=wrap;html=1;sketch=0;fontSize=14;align=center;strokeColor=#b85450;fillColor=#f8cecc;perimeterSpacing=0;glass=0;shadow=0;" parent="1" vertex="1">
          <mxGeometry x="30" y="950" width="130" height="30" as="geometry" />
        </mxCell>
        <mxCell id="Akp1j36LhRfIPDxdq11B-40" value="用户表" style="rounded=0;whiteSpace=wrap;html=1;sketch=0;fontSize=14;align=center;strokeColor=#b85450;fillColor=#f8cecc;perimeterSpacing=0;glass=0;shadow=0;" parent="1" vertex="1">
          <mxGeometry x="190" y="790" width="130" height="30" as="geometry" />
        </mxCell>
        <mxCell id="Akp1j36LhRfIPDxdq11B-41" value="组织表" style="rounded=0;whiteSpace=wrap;html=1;sketch=0;fontSize=14;align=center;strokeColor=#b85450;fillColor=#f8cecc;perimeterSpacing=0;glass=0;shadow=0;" parent="1" vertex="1">
          <mxGeometry x="190" y="830" width="130" height="30" as="geometry" />
        </mxCell>
        <mxCell id="Akp1j36LhRfIPDxdq11B-42" value="商户表" style="rounded=0;whiteSpace=wrap;html=1;sketch=0;fontSize=14;align=center;strokeColor=#b85450;fillColor=#f8cecc;perimeterSpacing=0;glass=0;shadow=0;" parent="1" vertex="1">
          <mxGeometry x="190" y="870" width="130" height="30" as="geometry" />
        </mxCell>
        <mxCell id="Akp1j36LhRfIPDxdq11B-43" value="服务商表" style="rounded=0;whiteSpace=wrap;html=1;sketch=0;fontSize=14;align=center;strokeColor=#b85450;fillColor=#f8cecc;perimeterSpacing=0;glass=0;shadow=0;" parent="1" vertex="1">
          <mxGeometry x="190" y="910" width="130" height="30" as="geometry" />
        </mxCell>
        <mxCell id="Akp1j36LhRfIPDxdq11B-44" value="技工表" style="rounded=0;whiteSpace=wrap;html=1;sketch=0;fontSize=14;align=center;strokeColor=#b85450;fillColor=#f8cecc;perimeterSpacing=0;glass=0;shadow=0;" parent="1" vertex="1">
          <mxGeometry x="190" y="950" width="130" height="30" as="geometry" />
        </mxCell>
        <mxCell id="Akp1j36LhRfIPDxdq11B-45" value="设备表" style="rounded=0;whiteSpace=wrap;html=1;sketch=0;fontSize=14;align=center;strokeColor=#b85450;fillColor=#f8cecc;perimeterSpacing=0;glass=0;shadow=0;" parent="1" vertex="1">
          <mxGeometry x="30" y="990" width="130" height="30" as="geometry" />
        </mxCell>
        <mxCell id="Akp1j36LhRfIPDxdq11B-46" value="数据字典表" style="rounded=0;whiteSpace=wrap;html=1;sketch=0;fontSize=14;align=center;strokeColor=#b85450;fillColor=#f8cecc;perimeterSpacing=0;glass=0;shadow=0;" parent="1" vertex="1">
          <mxGeometry x="350" y="790" width="130" height="30" as="geometry" />
        </mxCell>
        <mxCell id="Akp1j36LhRfIPDxdq11B-47" value="角色表" style="rounded=0;whiteSpace=wrap;html=1;sketch=0;fontSize=14;align=center;strokeColor=#b85450;fillColor=#f8cecc;perimeterSpacing=0;glass=0;shadow=0;" parent="1" vertex="1">
          <mxGeometry x="350" y="830" width="130" height="30" as="geometry" />
        </mxCell>
        <mxCell id="Akp1j36LhRfIPDxdq11B-48" value="权限表" style="rounded=0;whiteSpace=wrap;html=1;sketch=0;fontSize=14;align=center;strokeColor=#b85450;fillColor=#f8cecc;perimeterSpacing=0;glass=0;shadow=0;" parent="1" vertex="1">
          <mxGeometry x="350" y="870" width="130" height="30" as="geometry" />
        </mxCell>
        <mxCell id="Akp1j36LhRfIPDxdq11B-50" value="日志记录" style="rounded=0;whiteSpace=wrap;html=1;sketch=0;fontSize=14;align=center;strokeColor=#6c8ebf;fillColor=#dae8fc;perimeterSpacing=0;glass=0;shadow=0;" parent="1" vertex="1">
          <mxGeometry x="390" y="290" width="90" height="30" as="geometry" />
        </mxCell>
        <mxCell id="Akp1j36LhRfIPDxdq11B-51" value="服务调用" style="rounded=0;whiteSpace=wrap;html=1;sketch=0;fontSize=14;align=center;strokeColor=#6c8ebf;fillColor=#dae8fc;perimeterSpacing=0;glass=0;shadow=0;" parent="1" vertex="1">
          <mxGeometry x="390" y="330" width="90" height="30" as="geometry" />
        </mxCell>
        <mxCell id="Akp1j36LhRfIPDxdq11B-52" value="缓存" style="rounded=0;whiteSpace=wrap;html=1;sketch=0;fontSize=14;align=center;strokeColor=#6c8ebf;fillColor=#dae8fc;perimeterSpacing=0;glass=0;shadow=0;" parent="1" vertex="1">
          <mxGeometry x="390" y="370" width="90" height="30" as="geometry" />
        </mxCell>
        <mxCell id="Akp1j36LhRfIPDxdq11B-53" value="消息队列" style="rounded=0;whiteSpace=wrap;html=1;sketch=0;fontSize=14;align=center;strokeColor=#6c8ebf;fillColor=#dae8fc;perimeterSpacing=0;glass=0;shadow=0;" parent="1" vertex="1">
          <mxGeometry x="390" y="410" width="90" height="30" as="geometry" />
        </mxCell>
        <mxCell id="Akp1j36LhRfIPDxdq11B-54" value="签名校验" style="rounded=0;whiteSpace=wrap;html=1;sketch=0;fontSize=14;align=center;strokeColor=#d6b656;fillColor=#fff2cc;perimeterSpacing=0;glass=0;shadow=0;" parent="1" vertex="1">
          <mxGeometry x="670" y="40" width="140" height="30" as="geometry" />
        </mxCell>
        <mxCell id="Akp1j36LhRfIPDxdq11B-56" value="MySQL" style="rounded=0;whiteSpace=wrap;html=1;sketch=0;fontSize=14;align=center;strokeColor=#9673a6;fillColor=#e1d5e7;verticalAlign=top;perimeterSpacing=0;glass=0;shadow=0;" parent="1" vertex="1">
          <mxGeometry x="20" y="650" width="470" height="30" as="geometry" />
        </mxCell>
        <mxCell id="Akp1j36LhRfIPDxdq11B-57" value="Redis" style="rounded=0;whiteSpace=wrap;html=1;sketch=0;fontSize=14;align=center;strokeColor=#9673a6;fillColor=#e1d5e7;verticalAlign=top;perimeterSpacing=0;glass=0;shadow=0;" parent="1" vertex="1">
          <mxGeometry x="500" y="650" width="150" height="30" as="geometry" />
        </mxCell>
        <mxCell id="Akp1j36LhRfIPDxdq11B-59" value="定时任务" style="rounded=0;whiteSpace=wrap;html=1;sketch=0;fontSize=14;align=center;strokeColor=#6c8ebf;fillColor=#dae8fc;perimeterSpacing=0;glass=0;shadow=0;" parent="1" vertex="1">
          <mxGeometry x="390" y="450" width="90" height="30" as="geometry" />
        </mxCell>
        <mxCell id="Akp1j36LhRfIPDxdq11B-60" value="工单API" style="rounded=0;whiteSpace=wrap;html=1;sketch=0;fontSize=14;align=center;strokeColor=#6c8ebf;fillColor=#dae8fc;perimeterSpacing=0;glass=0;shadow=0;" parent="1" vertex="1">
          <mxGeometry x="510" y="290" width="90" height="30" as="geometry" />
        </mxCell>
        <mxCell id="Akp1j36LhRfIPDxdq11B-61" value="保单API" style="rounded=0;whiteSpace=wrap;html=1;sketch=0;fontSize=14;align=center;strokeColor=#6c8ebf;fillColor=#dae8fc;perimeterSpacing=0;glass=0;shadow=0;" parent="1" vertex="1">
          <mxGeometry x="510" y="330" width="90" height="30" as="geometry" />
        </mxCell>
        <mxCell id="Akp1j36LhRfIPDxdq11B-62" value="Web" style="text;html=1;strokeColor=#d6b656;align=center;verticalAlign=top;whiteSpace=wrap;rounded=0;sketch=0;fontSize=14;fontStyle=1;gradientColor=#ffd966;fillColor=#fff2cc;perimeterSpacing=0;glass=0;shadow=0;" parent="1" vertex="1">
          <mxGeometry x="9" y="10" width="611" height="70" as="geometry" />
        </mxCell>
        <mxCell id="Akp1j36LhRfIPDxdq11B-63" value="小程序" style="rounded=0;whiteSpace=wrap;html=1;sketch=0;fontSize=14;align=center;strokeColor=#d6b656;verticalAlign=top;fillColor=#fff2cc;perimeterSpacing=0;glass=0;shadow=0;" parent="1" vertex="1">
          <mxGeometry x="19" y="40" width="151" height="30" as="geometry" />
        </mxCell>
        <mxCell id="Akp1j36LhRfIPDxdq11B-64" value="管理系统" style="rounded=0;whiteSpace=wrap;html=1;sketch=0;fontSize=14;align=center;strokeColor=#d6b656;verticalAlign=top;fillColor=#fff2cc;perimeterSpacing=0;glass=0;shadow=0;" parent="1" vertex="1">
          <mxGeometry x="339" y="40" width="150" height="30" as="geometry" />
        </mxCell>
        <mxCell id="Akp1j36LhRfIPDxdq11B-65" value="对外接口" style="rounded=0;whiteSpace=wrap;html=1;sketch=0;fontSize=14;align=center;strokeColor=#d6b656;verticalAlign=top;fillColor=#fff2cc;perimeterSpacing=0;glass=0;shadow=0;" parent="1" vertex="1">
          <mxGeometry x="670" y="80" width="140" height="30" as="geometry" />
        </mxCell>
        <mxCell id="Akp1j36LhRfIPDxdq11B-75" value="公众号" style="rounded=0;whiteSpace=wrap;html=1;sketch=0;fontSize=14;align=center;strokeColor=#d6b656;verticalAlign=top;fillColor=#fff2cc;perimeterSpacing=0;glass=0;shadow=0;" parent="1" vertex="1">
          <mxGeometry x="179" y="40" width="151" height="30" as="geometry" />
        </mxCell>
        <mxCell id="Akp1j36LhRfIPDxdq11B-77" value="权限控制" style="rounded=0;whiteSpace=wrap;html=1;sketch=0;fontSize=14;align=center;strokeColor=#d79b00;fillColor=#ffe6cc;perimeterSpacing=0;glass=0;shadow=0;" parent="1" vertex="1">
          <mxGeometry x="180" y="150" width="150" height="30" as="geometry" />
        </mxCell>
        <mxCell id="Akp1j36LhRfIPDxdq11B-78" value="流量控制" style="rounded=0;whiteSpace=wrap;html=1;sketch=0;fontSize=14;align=center;strokeColor=#d79b00;fillColor=#ffe6cc;perimeterSpacing=0;glass=0;shadow=0;" parent="1" vertex="1">
          <mxGeometry x="340" y="150" width="150" height="30" as="geometry" />
        </mxCell>
        <mxCell id="Akp1j36LhRfIPDxdq11B-81" value="用户认证" style="rounded=0;whiteSpace=wrap;html=1;sketch=0;fontSize=14;align=center;strokeColor=#d79b00;fillColor=#ffe6cc;perimeterSpacing=0;glass=0;shadow=0;" parent="1" vertex="1">
          <mxGeometry x="20" y="150" width="150" height="30" as="geometry" />
        </mxCell>
        <mxCell id="ny-wrZLaJV0iAhvgu-0p-1" value="注册中心" style="rounded=0;whiteSpace=wrap;html=1;fillColor=#dae8fc;strokeColor=#6c8ebf;fontStyle=1;fontSize=14;verticalAlign=top;gradientColor=#7ea6e0;sketch=0;" vertex="1" parent="1">
          <mxGeometry x="660" y="230" width="160" height="60" as="geometry" />
        </mxCell>
        <mxCell id="ny-wrZLaJV0iAhvgu-0p-2" value="配置中心" style="rounded=0;whiteSpace=wrap;html=1;fillColor=#dae8fc;strokeColor=#6c8ebf;fontStyle=1;fontSize=14;verticalAlign=top;gradientColor=#7ea6e0;sketch=0;" vertex="1" parent="1">
          <mxGeometry x="660" y="330" width="160" height="250" as="geometry" />
        </mxCell>
        <mxCell id="ny-wrZLaJV0iAhvgu-0p-3" value="订单配置" style="rounded=0;whiteSpace=wrap;html=1;sketch=0;fontSize=14;align=center;strokeColor=#6c8ebf;fillColor=#dae8fc;perimeterSpacing=0;glass=0;shadow=0;" vertex="1" parent="1">
          <mxGeometry x="670" y="360" width="140" height="30" as="geometry" />
        </mxCell>
        <mxCell id="ny-wrZLaJV0iAhvgu-0p-4" value="用户配置" style="rounded=0;whiteSpace=wrap;html=1;sketch=0;fontSize=14;align=center;strokeColor=#6c8ebf;fillColor=#dae8fc;perimeterSpacing=0;glass=0;shadow=0;" vertex="1" parent="1">
          <mxGeometry x="670" y="400" width="140" height="30" as="geometry" />
        </mxCell>
        <mxCell id="ny-wrZLaJV0iAhvgu-0p-5" value="公共配置" style="rounded=0;whiteSpace=wrap;html=1;sketch=0;fontSize=14;align=center;strokeColor=#6c8ebf;fillColor=#dae8fc;perimeterSpacing=0;glass=0;shadow=0;" vertex="1" parent="1">
          <mxGeometry x="670" y="480" width="140" height="30" as="geometry" />
        </mxCell>
        <mxCell id="ny-wrZLaJV0iAhvgu-0p-6" value="管理员配置" style="rounded=0;whiteSpace=wrap;html=1;sketch=0;fontSize=14;align=center;strokeColor=#6c8ebf;fillColor=#dae8fc;perimeterSpacing=0;glass=0;shadow=0;" vertex="1" parent="1">
          <mxGeometry x="670" y="440" width="140" height="30" as="geometry" />
        </mxCell>
      </root>
    </mxGraphModel>
  </diagram>
</mxfile>
